<svg width="24" height="199" viewBox="0 0 24 199" fill="none" xmlns="http://www.w3.org/2000/svg">
<path d="M5 187H19M5 187L11 193M5 187L11 181" stroke="black" stroke-width="2" stroke-linecap="round" stroke-linejoin="round"/>
<path d="M11 152C11 152.265 11.1054 152.52 11.2929 152.707C11.4804 152.895 11.7348 153 12 153C12.2652 153 12.5196 152.895 12.7071 152.707C12.8946 152.52 13 152.265 13 152C13 151.735 12.8946 151.48 12.7071 151.293C12.5196 151.105 12.2652 151 12 151C11.7348 151 11.4804 151.105 11.2929 151.293C11.1054 151.48 11 151.735 11 152ZM11 159C11 159.265 11.1054 159.52 11.2929 159.707C11.4804 159.895 11.7348 160 12 160C12.2652 160 12.5196 159.895 12.7071 159.707C12.8946 159.52 13 159.265 13 159C13 158.735 12.8946 158.48 12.7071 158.293C12.5196 158.105 12.2652 158 12 158C11.7348 158 11.4804 158.105 11.2929 158.293C11.1054 158.48 11 158.735 11 159ZM11 145C11 145.265 11.1054 145.52 11.2929 145.707C11.4804 145.895 11.7348 146 12 146C12.2652 146 12.5196 145.895 12.7071 145.707C12.8946 145.52 13 145.265 13 145C13 144.735 12.8946 144.48 12.7071 144.293C12.5196 144.105 12.2652 144 12 144C11.7348 144 11.4804 144.105 11.2929 144.293C11.1054 144.48 11 144.735 11 145Z" stroke="black" stroke-width="2" stroke-linecap="round" stroke-linejoin="round"/>
<path d="M12 110V124M5 117H19" stroke="black" stroke-width="2" stroke-linecap="round" stroke-linejoin="round"/>
<g clip-path="url(#clip0_407_21)">
<path d="M8.24301 77.34L1.86301 78.265L1.75001 78.288C1.57895 78.3335 1.423 78.4235 1.2981 78.5488C1.1732 78.6742 1.08381 78.8305 1.03907 79.0018C0.994331 79.173 0.995837 79.3531 1.04344 79.5235C1.09104 79.694 1.18303 79.8488 1.31001 79.972L5.93201 84.471L4.84201 90.826L4.82901 90.936C4.81854 91.113 4.85528 91.2895 4.93546 91.4475C5.01564 91.6056 5.13639 91.7395 5.28535 91.8356C5.4343 91.9316 5.6061 91.9863 5.78316 91.9942C5.96022 92.002 6.13617 91.9626 6.29301 91.88L11.999 88.88L17.692 91.88L17.792 91.926C17.9571 91.9911 18.1365 92.011 18.3118 91.9838C18.4871 91.9566 18.652 91.8833 18.7896 91.7713C18.9272 91.6593 19.0326 91.5128 19.0948 91.3467C19.1571 91.1806 19.1741 91.0009 19.144 90.826L18.053 84.471L22.677 79.971L22.755 79.886C22.8664 79.7488 22.9395 79.5845 22.9667 79.4098C22.994 79.2352 22.9744 79.0564 22.9101 78.8918C22.8458 78.7271 22.7389 78.5825 22.6005 78.4726C22.4621 78.3626 22.297 78.2914 22.122 78.266L15.742 77.34L12.89 71.56C12.8075 71.3926 12.6797 71.2516 12.5212 71.1529C12.3627 71.0543 12.1797 71.0021 11.993 71.0021C11.8063 71.0021 11.6233 71.0543 11.4648 71.1529C11.3063 71.2516 11.1785 71.3926 11.096 71.56L8.24301 77.34Z" fill="#FFBE40"/>
</g>
<path d="M12.0001 52.75L5.82808 55.995L7.00708 49.122L2.00708 44.255L8.90708 43.255L11.9931 37.002L15.0791 43.255L21.9791 44.255L16.9791 49.122L18.1581 55.995L12.0001 52.75Z" stroke="black" stroke-width="2" stroke-linecap="round" stroke-linejoin="round"/>
<path d="M21 21L15 15M3 10C3 10.9193 3.18106 11.8295 3.53284 12.6788C3.88463 13.5281 4.40024 14.2997 5.05025 14.9497C5.70026 15.5998 6.47194 16.1154 7.32122 16.4672C8.1705 16.8189 9.08075 17 10 17C10.9193 17 11.8295 16.8189 12.6788 16.4672C13.5281 16.1154 14.2997 15.5998 14.9497 14.9497C15.5998 14.2997 16.1154 13.5281 16.4672 12.6788C16.8189 11.8295 17 10.9193 17 10C17 9.08075 16.8189 8.1705 16.4672 7.32122C16.1154 6.47194 15.5998 5.70026 14.9497 5.05025C14.2997 4.40024 13.5281 3.88463 12.6788 3.53284C11.8295 3.18106 10.9193 3 10 3C9.08075 3 8.1705 3.18106 7.32122 3.53284C6.47194 3.88463 5.70026 4.40024 5.05025 5.05025C4.40024 5.70026 3.88463 6.47194 3.53284 7.32122C3.18106 8.1705 3 9.08075 3 10Z" stroke="white" stroke-width="2" stroke-linecap="round" stroke-linejoin="round"/>
<defs>
<clipPath id="clip0_407_21">
<rect width="24" height="24" fill="white" transform="translate(0 70)"/>
</clipPath>
</defs>
</svg>
